# xmcd CD database file generated by libcdaudio 0.99.6
# 
# Track frame offsets:
#       215
#       15160
#       31720
#       45685
#       66352
#       84062
#       97192
#       111500
#       125850
#       142665
#       155305
# 
# Disc length: 2234 seconds
# 
# Revision: 1
# Processed by: cddbd v1.4PL0 Copyright (c) Steve Scherf et al.
# Submitted via: libcdaudio 0.99.6
# 
DISCID=8408b80b
DTITLE=Teresa - Homestead Your Heart
DYEAR=1900
DGENRE=
TTITLE0=Who's Gonna Love That Girl
TTITLE1=Who't To Say
TTITLE2=Homestead Your Heart
TTITLE3=Work Of Art
TTITLE4=Sorry
TTITLE5=What Are The Odds
TTITLE6=So Wrong
TTITLE7=Your Turn To Learn
TTITLE8=No One's Come Close So Far
TTITLE9=Don't Lead Me On
TTITLE10=Used To Being Used
EXTD=
EXTT0=
EXTT1=
EXTT2=
EXTT3=
EXTT4=
EXTT5=
EXTT6=
EXTT7=
EXTT8=
EXTT9=
EXTT10=
PLAYORDER=
